<?xml version="1.0" encoding="utf-8"?>
<!-- Generator: Adobe Illustrator 23.0.6, SVG Export Plug-In . SVG Version: 6.00 Build 0)  -->
<svg version="1.1" id="Lag_1" xmlns="http://www.w3.org/2000/svg" xmlns:xlink="http://www.w3.org/1999/xlink" x="0px" y="0px"
	 viewBox="0 0 34.7 44.6" style="enable-background:new 0 0 34.7 44.6;" xml:space="preserve">
<style type="text/css">
	.st0{fill:#006D3B;}
</style>
<g>
	<path class="st0" d="M17.5,44.5c-7.4,0-14.7-0.3-15.9-1c-0.3-0.2-0.4-0.5-0.4-0.6c0.1-1.1,0-1.6-0.1-2.1c0-0.3-0.1-0.5-0.1-0.8
		V29.3c0-0.8-0.1-2.1-0.1-2.9L0.2,15.8c0-0.5-0.1-2-0.1-3L0,1.8c0-0.3,0.1-0.6,0.4-0.8C1,0.3,2.3,0,3.8,0l26.1,0.7
		c1.8,0,3.8,0.7,3.9,1.9l0.7,10.2c0.1,0.8,0,2.2,0,3l-1.1,10.7c-0.1,0.8-0.1,2.1,0,2.9L34.2,40c0,0.5,0.1,0.9,0.2,1.6
		c0.1,0.4,0.1,0.8,0.2,1.3c0,0.1,0,0.3-0.3,0.5C33.3,44.2,25.4,44.5,17.5,44.5z M2,42.9c1.9,1.3,29.5,1.2,31.9,0
		c-0.1-0.5-0.1-0.8-0.2-1.1c-0.1-0.7-0.2-1.1-0.2-1.7l-0.8-10.7c-0.1-0.8,0-2.2,0-3l1.1-10.7c0.1-0.8,0.1-2.1,0-2.9L33.1,2.6
		c0-0.5-1.3-1.2-3.2-1.2L3.8,0.8c-1.5,0-2.5,0.3-2.9,0.7C0.8,1.6,0.7,1.7,0.8,1.8l0.1,11c0,0.7,0.1,2,0.1,2.9l0.8,10.7
		c0,0.8,0.1,2.1,0.1,3V40c0,0.3,0,0.5,0.1,0.7C2,41.2,2.1,41.8,2,42.9z M2,43C2,43,2,43,2,43C2,43,2,43,2,43z"/>
</g>
<g>
	<path class="st0" d="M11.4,9.8c-0.7,0-0.7-0.1-0.8-0.2l-0.1-0.1l0.4-0.7c0-0.1,0.1-0.2,0.9-0.2l4.3,0c0.3,0,0.9,0,1.2,0l4.5,0
		c0.3,0,0.9,0,1.2,0l5.8,0c0,0,0,0,0,0c0.3,0,0.6,0.1,0.7,0.3c0.1,0.2,0.1,0.3,0,0.5c-0.1,0.1-0.3,0.3-0.7,0.3c-0.1,0-0.2,0-0.3,0
		c-0.3,0-0.4,0-0.6,0L11.4,9.8C11.4,9.8,11.4,9.8,11.4,9.8z M11.2,9.3c0.1,0,0.1,0,0.2,0l16.5,0c0.2,0,0.4,0,0.9,0c0,0,0,0,0,0
		c0.2,0,0.3-0.1,0.3-0.1c0,0-0.1-0.1-0.3-0.1c0,0,0,0,0,0l-5.8,0c-0.3,0-0.9,0-1.2,0l-4.5,0c-0.3,0-0.9,0-1.2,0l-4.3,0
		c-0.2,0-0.4,0-0.5,0L11.2,9.3z"/>
</g>
<g>
	<path class="st0" d="M11.4,19.2c-0.7,0-0.8-0.1-0.8-0.2l-0.1-0.1l0.4-0.6c0.1-0.1,0.1-0.2,0.9-0.2l4.3,0c0.3,0,0.9,0,1.2,0l4.5,0
		c0.3,0,0.9,0,1.2,0l5.8,0c0,0,0,0,0,0c0.3,0,0.6,0.1,0.7,0.3c0.1,0.1,0.1,0.3,0,0.5c-0.1,0.1-0.2,0.3-0.7,0.3c-0.1,0-0.3,0-0.4,0
		c-0.2,0-0.4,0-0.5,0L11.4,19.2z M11.2,18.7c0.1,0,0.1,0,0.2,0l16.5,0c0.2,0,0.4,0,0.9,0c0.2,0,0.3,0,0.3-0.1c0,0-0.1-0.1-0.3-0.1
		c0,0,0,0,0,0l0-0.2l0,0.2l-5.8,0c-0.3,0-0.9,0-1.2,0l-4.5,0c-0.3,0-0.9,0-1.2,0l-4.3,0C11.6,18.6,11.4,18.6,11.2,18.7L11.2,18.7z"
		/>
</g>
<g>
	<path class="st0" d="M11.4,27.5c-0.7,0-0.7-0.1-0.8-0.2l-0.1-0.1l0.1-0.1l0.3-0.5c0.1-0.1,0.1-0.2,0.9-0.2l4.3,0c0.3,0,0.9,0,1.2,0
		l4.5,0c0.3,0,0.9,0,1.2,0l5.8,0c0.3,0,0.6,0.1,0.7,0.3c0.1,0.2,0.1,0.3,0,0.5c-0.1,0.1-0.3,0.3-0.7,0.3c-0.1,0-0.3,0-0.4,0
		c-0.2,0-0.4,0-0.5,0L11.4,27.5C11.4,27.5,11.4,27.5,11.4,27.5z M11.2,27c0.1,0,0.1,0,0.2,0L28,27c0.2,0,0.4,0,0.9,0c0,0,0,0,0,0
		c0.2,0,0.3-0.1,0.3-0.1h0c0,0-0.1-0.1-0.3-0.1l0-0.2l0,0.2l-5.8,0c-0.3,0-0.9,0-1.2,0l-4.5,0c-0.3,0-0.9,0-1.2,0l-4.3,0
		c-0.2,0-0.4,0-0.5,0L11.2,27z"/>
</g>
<g>
	<path class="st0" d="M11.4,36.4c-0.7,0-0.8-0.1-0.8-0.2l-0.1-0.1l0.4-0.6c0.1-0.1,0.1-0.2,0.9-0.2l4.3,0c0.3,0,0.9,0,1.2,0l4.5,0
		c0.3,0,0.9,0,1.2,0l5.8,0c0,0,0,0,0,0c0.3,0,0.6,0.1,0.7,0.3c0.1,0.1,0.1,0.3,0,0.5c-0.1,0.1-0.2,0.3-0.7,0.3c-0.1,0-0.2,0-0.3,0
		c-0.3,0-0.4,0-0.6,0L11.4,36.4z M11.3,35.9c0.1,0,0.1,0,0.2,0l16.5,0c0.2,0,0.4,0,0.9,0c0,0,0,0,0,0c0.2,0,0.3,0,0.3-0.1
		c0,0-0.1-0.1-0.3-0.1c0,0,0,0,0,0l0-0.2l0,0.2l-5.8,0c-0.3,0-0.9,0-1.2,0l-4.5,0c-0.3,0-0.9,0-1.2,0l-4.3,0
		C11.6,35.8,11.4,35.8,11.3,35.9L11.3,35.9z"/>
</g>
<g>
	<g>
		<path class="st0" d="M8.1,9.2c0,0.1,0,0.3,0,0.4C8,9.8,7.9,9.9,7.8,10c-0.1,0.2-0.2,0.3-0.4,0.4c-0.1,0.1-0.2,0.1-0.4,0.2
			c-0.4,0.2-0.8,0.1-1.2-0.1c-0.2-0.1-0.4-0.2-0.5-0.4C5.2,9.9,5.1,9.5,5.1,9.1c0-0.4,0.2-0.6,0.4-0.9C5.7,8.1,5.7,8,5.8,8
			C6,7.9,6.1,7.8,6.3,7.8c0.2,0,0.4-0.1,0.6,0C7,7.8,7.3,7.9,7.4,8C7.7,8.1,7.9,8.4,8,8.6C8.1,8.8,8.1,9,8.1,9.2z"/>
	</g>
</g>
<g>
	<g>
		<path class="st0" d="M8.1,18.6c0,0.1,0,0.3,0,0.4c0,0.2-0.1,0.3-0.2,0.4c-0.1,0.2-0.2,0.3-0.4,0.4C7.3,19.9,7.2,20,7.1,20
			c-0.4,0.2-0.8,0.1-1.2-0.1c-0.2-0.1-0.4-0.2-0.5-0.4c-0.2-0.3-0.3-0.7-0.3-1.1c0-0.4,0.2-0.6,0.4-0.9c0.1-0.1,0.1-0.2,0.3-0.2
			c0.2-0.1,0.3-0.2,0.5-0.2c0.2,0,0.4-0.1,0.6,0c0.2,0,0.4,0.1,0.6,0.2c0.3,0.2,0.5,0.4,0.6,0.7C8.1,18.2,8.1,18.4,8.1,18.6z"/>
	</g>
</g>
<g>
	<g>
		<path class="st0" d="M8.1,27c0,0.1,0,0.3,0,0.4c0,0.2-0.1,0.3-0.2,0.4c-0.1,0.2-0.2,0.3-0.4,0.4c-0.1,0.1-0.2,0.1-0.4,0.2
			c-0.4,0.2-0.8,0.1-1.2-0.1c-0.2-0.1-0.4-0.2-0.5-0.4c-0.2-0.3-0.3-0.7-0.3-1.1c0-0.4,0.2-0.6,0.4-0.9c0.1-0.1,0.1-0.2,0.3-0.2
			c0.2-0.1,0.3-0.2,0.5-0.2c0.2,0,0.4-0.1,0.6,0c0.2,0,0.4,0.1,0.6,0.2c0.3,0.2,0.5,0.4,0.6,0.7C8.1,26.5,8.1,26.8,8.1,27z"/>
	</g>
</g>
<g>
	<g>
		<path class="st0" d="M8.1,35.9c0,0.1,0,0.3,0,0.4c0,0.2-0.1,0.3-0.2,0.4c-0.1,0.2-0.2,0.3-0.4,0.4c-0.1,0.1-0.2,0.1-0.4,0.2
			c-0.4,0.2-0.8,0.1-1.2-0.1c-0.2-0.1-0.4-0.2-0.5-0.4c-0.2-0.3-0.3-0.7-0.3-1.1c0-0.4,0.2-0.6,0.4-0.9c0.1-0.1,0.1-0.2,0.3-0.2
			c0.2-0.1,0.3-0.2,0.5-0.2c0.2,0,0.4-0.1,0.6,0c0.2,0,0.4,0.1,0.6,0.2C7.7,34.8,7.9,35,8,35.3C8.1,35.5,8.1,35.7,8.1,35.9z"/>
	</g>
</g>
</svg>
